<?xml version="1.0" encoding="utf-8"?>
<!-- Generator: Adobe Illustrator 24.1.2, SVG Export Plug-In . SVG Version: 6.00 Build 0)  -->
<svg version="1.1" id="Layer_1" xmlns="http://www.w3.org/2000/svg" xmlns:xlink="http://www.w3.org/1999/xlink" x="0px" y="0px"
	 viewBox="0 0 841.9 319.7" style="enable-background:new 0 0 841.9 319.7;" xml:space="preserve">
<style type="text/css">
	.st0{fill:#FFFFFF;}
</style>
<g>
	<path d="M78,167.3c0.7,0,1.3,0.1,1.9,0.2c0.6,0.2,0.9,0.9,0.7,2c-0.1,0.9-0.1,1.9-0.2,2.9c0,1-0.1,2.1-0.1,3.2v2.1
		c0.1,3.1,0.2,6,0.4,8.5c0,0.4-0.2,0.7-0.6,0.9c-0.4,0.2-0.9,0.3-1.4,0.3c-0.4,0-0.9-0.1-1.3-0.3c-0.4-0.2-0.7-0.5-0.8-0.9
		c-0.6-3.2-1.1-5.7-1.7-7.5c-0.6-1.8-1.4-3.2-2.4-4.1c-1-0.9-2.4-1.5-4.2-1.7c-1.7-0.2-4.1-0.4-6.9-0.5H54c-2.1,0-3.8,0-5.1,0.1
		c-1.3,0.1-2.3,0.4-3,0.9s-1.2,1.4-1.4,2.5c-0.2,1.1-0.4,2.8-0.4,4.8v22.5c0,1.1,0.2,1.8,0.6,2.1c0.4,0.3,0.8,0.5,1.2,0.5
		c3.8,0,6.8-0.2,9-0.5c2.2-0.3,3.8-0.9,4.9-1.8c1.1-0.8,1.8-2,2.2-3.4c0.4-1.4,0.7-3.2,0.9-5.4c0.1-0.5,0.3-0.8,0.8-1.1
		c0.4-0.2,0.9-0.4,1.4-0.4c0.5,0,0.9,0.1,1.3,0.4c0.4,0.2,0.6,0.6,0.6,1.1c0,1.3,0,2.5-0.1,3.5c-0.1,1-0.2,2.1-0.3,3.1
		c-0.1,1-0.2,2.1-0.3,3.2c-0.1,1.1-0.1,2.4-0.1,3.8c0,2.4,0.1,4.7,0.4,6.7c0.2,1,0.3,2.1,0.3,3.3c0.1,1.2,0.1,2.5,0.1,3.9
		c0,0.4-0.2,0.8-0.5,0.9c-0.3,0.2-0.7,0.3-1.2,0.3c-0.5,0-1-0.1-1.5-0.4c-0.5-0.2-0.8-0.6-0.9-1.1c-0.2-2.4-0.6-4.3-0.9-5.8
		c-0.4-1.5-1.1-2.6-2.2-3.4c-1.1-0.8-2.7-1.3-4.9-1.6c-2.2-0.3-5.1-0.4-9-0.4c-0.4,0-0.8,0.1-1.2,0.4c-0.4,0.3-0.6,0.9-0.6,1.8v19.7
		c0,2.9,0.2,5.1,0.7,6.8c0.5,1.7,1.2,3,2.3,3.9c1.1,0.9,2.6,1.6,4.4,2c1.8,0.4,4,0.7,6.7,0.9c0.6,0,1,0.2,1.2,0.6
		c0.3,0.4,0.4,0.8,0.4,1.4c0,0.6-0.2,1-0.5,1.5c-0.3,0.4-0.7,0.7-1.3,0.7c-2.2,0-4.2,0-6.1-0.1c-1.9-0.1-3.6-0.2-5.2-0.4
		c-1.6-0.2-3.2-0.3-4.7-0.4c-1.5-0.1-3-0.1-4.5-0.1c-3.1,0-6.2,0.2-9.2,0.5c-3,0.3-6,0.5-8.9,0.5c-0.5,0-0.9-0.2-1.1-0.6
		c-0.3-0.4-0.4-0.9-0.4-1.5c0-0.5,0.1-0.9,0.3-1.3c0.2-0.4,0.6-0.6,1.2-0.7c2.3-0.2,4.2-0.6,5.7-1c1.5-0.4,2.6-1.1,3.4-2
		c0.8-0.9,1.4-2.1,1.7-3.6s0.5-3.5,0.5-5.9v-46.3c0-1.8-0.1-3.6-0.2-5.3c-0.1-1.7-0.4-3.3-0.8-4.8c-0.4-1.5-1.1-2.7-1.9-3.8
		c-0.8-1.1-2-1.8-3.5-2.3c-0.9-0.2-1.8-0.4-2.8-0.6c-1-0.2-1.9-0.3-2.8-0.4c-0.5,0-0.9-0.2-1.1-0.6c-0.2-0.4-0.4-0.8-0.4-1.3
		s0.1-0.9,0.4-1.4c0.2-0.4,0.6-0.6,1.1-0.6c1.4,0,2.7,0,3.9,0.1c1.2,0,2.4,0.1,3.5,0.2c1.1,0.1,2.3,0.1,3.6,0.2
		c1.3,0,2.7,0.1,4.2,0.1H78z"/>
	<path d="M101.3,235.1c0,2,0,3.8,0.2,5.2c0.1,1.4,0.4,2.6,0.9,3.5s1.2,1.6,2.3,2.1c1,0.5,2.5,0.9,4.4,1.1c0.4,0.1,0.8,0.3,1,0.6
		c0.2,0.3,0.3,0.7,0.3,1.2c0,0.4-0.1,0.9-0.3,1.3c-0.2,0.4-0.6,0.6-1,0.6c-0.7,0-1.6,0-2.6-0.1c-1-0.1-2.1-0.2-3.2-0.3
		s-2.3-0.2-3.6-0.3c-1.2-0.1-2.5-0.1-3.7-0.1c-2.7,0-5.2,0.1-7.7,0.4c-2.5,0.3-4.9,0.4-7.2,0.4c-0.4,0-0.7-0.2-0.9-0.5
		c-0.2-0.4-0.3-0.8-0.3-1.2c0-0.4,0.1-0.9,0.3-1.2c0.2-0.4,0.6-0.6,1-0.7c2.2-0.2,3.8-0.6,5-1.1c1.2-0.5,2-1.2,2.6-2
		c0.5-0.9,0.9-2,0.9-3.2c0.1-1.3,0.1-2.9,0.1-4.7v-19.8c0-3.6-0.1-6.5-0.2-8.5c-0.2-2.1-0.5-3.7-1.1-4.8c-0.6-1.1-1.5-1.9-2.6-2.3
		c-1.1-0.4-2.7-0.8-4.7-1c-0.4,0-0.6-0.2-0.8-0.6c-0.2-0.4-0.3-0.8-0.3-1.2c0-0.4,0.1-0.9,0.3-1.3c0.2-0.4,0.5-0.6,0.8-0.6
		c1.8-0.1,3.7-0.3,5.6-0.6c2-0.3,3.8-0.5,5.5-0.8c1.7-0.3,3.2-0.6,4.4-0.8s2-0.3,2.3-0.3c1,0,1.7,0.3,1.9,0.9
		c0.3,0.6,0.4,1.1,0.4,1.6V235.1z M94.8,180.6c-2,0-3.8-0.6-5.3-1.9c-1.4-1.2-2.2-2.8-2.2-4.7c0-1,0.2-1.9,0.5-2.7
		c0.4-0.8,0.9-1.5,1.5-2.1s1.4-1.1,2.3-1.4c0.9-0.3,1.8-0.5,2.9-0.5c1,0,1.9,0.2,2.7,0.5c0.8,0.4,1.5,0.9,2.1,1.5
		c0.6,0.6,1.1,1.3,1.4,2.2c0.3,0.8,0.5,1.7,0.5,2.7c0,0.9-0.2,1.8-0.5,2.6c-0.3,0.8-0.8,1.5-1.4,2.1c-0.6,0.6-1.3,1.1-2,1.4
		C96.6,180.5,95.7,180.6,94.8,180.6z"/>
	<path d="M136.6,235.2c0,4.1,0.7,7,2,8.7c1.3,1.7,3.5,2.8,6.6,3.2c0.5,0.1,0.9,0.3,1.1,0.7c0.2,0.4,0.3,0.8,0.3,1.2
		s-0.1,0.9-0.4,1.2c-0.2,0.4-0.6,0.5-1,0.5c-0.4,0-1.1,0-2.1-0.1s-2.2-0.2-3.6-0.3c-1.4-0.1-2.8-0.2-4.2-0.4
		c-1.5-0.1-2.8-0.2-4.1-0.2c-2.7,0-5.2,0.1-7.5,0.4c-2.4,0.3-4.6,0.4-6.8,0.4c-0.4,0-0.7-0.2-0.9-0.5c-0.2-0.4-0.3-0.8-0.3-1.2
		c0-0.4,0.1-0.8,0.3-1.2c0.2-0.4,0.5-0.6,1-0.7c2-0.3,3.6-0.7,4.7-1.1c1.1-0.4,1.9-1,2.4-1.8c0.5-0.8,0.8-1.8,0.9-3.1
		c0.1-1.3,0.1-3,0.1-5.1v-15.5c0-4.1,0-7.5-0.1-10.1c0-2.7-0.3-4.8-0.9-6.3c-0.5-1.6-1.4-2.7-2.5-3.3s-2.8-1-5.1-1.1
		c-0.5,0-0.8-0.2-1-0.6c-0.2-0.4-0.3-0.8-0.3-1.2s0.1-0.8,0.2-1.2c0.2-0.4,0.4-0.6,0.7-0.6c4.7-0.3,8.6-0.8,11.9-1.5
		c3.2-0.7,5.3-1,6.2-1c0.9,0,1.6,0.2,1.9,0.7c0.4,0.5,0.5,1.1,0.5,1.9c0,0.2-0.1,0.6-0.2,1.2s-0.3,1.4-0.4,2.3
		c-0.2,0.9-0.3,1.7-0.4,2.5c-0.1,0.8-0.2,1.4-0.2,1.8c0,0.2,0.1,0.2,0.2,0.2c0.1,0,0.2-0.1,0.3-0.2c0.6-1,1.4-2.1,2.6-3.4
		c1.2-1.3,2.5-2.5,4.2-3.6c1.6-1.2,3.5-2.1,5.6-2.9c2.1-0.8,4.4-1.2,6.9-1.2c5.8,0,10.4,1.7,13.7,5.1c3.3,3.4,4.9,8.9,4.9,16.5v21
		c0,2.2,0.1,4,0.2,5.4c0.2,1.4,0.5,2.5,1,3.4c0.5,0.9,1.3,1.5,2.3,2c1,0.5,2.4,0.8,4.1,1.1c0.4,0.1,0.7,0.3,0.9,0.7
		c0.2,0.4,0.3,0.8,0.3,1.2c0,0.5-0.1,0.9-0.3,1.2c-0.2,0.4-0.5,0.5-0.9,0.5c-1.1,0-2.9-0.1-5.5-0.4c-2.6-0.3-5.1-0.4-7.5-0.4
		c-2.6,0-5.1,0.1-7.2,0.4c-2.2,0.3-4,0.4-5.6,0.4c-0.4,0-0.8-0.2-1-0.5c-0.2-0.4-0.3-0.8-0.4-1.2c0-0.4,0-0.8,0.2-1.2
		c0.2-0.4,0.5-0.6,1-0.7c1.6-0.3,2.9-0.7,3.8-1.2c0.9-0.5,1.6-1.2,2-2c0.5-0.8,0.7-1.9,0.8-3.1c0.1-1.3,0.1-2.9,0.1-4.8v-18.7
		c0-2-0.1-4.1-0.2-6.1c-0.1-2-0.5-3.9-1.2-5.5c-0.7-1.6-1.7-3-3.1-4.1c-1.3-1.1-3.2-1.6-5.7-1.6c-4.9,0-8.7,1.6-11.4,4.7
		c-2.7,3.2-4,7.7-4,13.6V235.2z"/>
	<path d="M240.2,228.7c0,3.4,0.1,6.1,0.2,8.2c0.1,2.1,0.5,3.7,1.1,4.9c0.6,1.2,1.5,2,2.8,2.5c1.2,0.5,2.9,0.7,5.1,0.7
		c0.8,0,1.1,0.6,1.1,1.8c0,1.2-0.4,1.8-1.1,1.8c-2.2,0-5.7,0.5-10.4,1.4c-4.7,0.9-7.4,1.4-8,1.4c-0.6,0-1.2-0.6-1.6-1.7
		c-0.4-1.1-0.6-2.7-0.6-4.8c0-0.4-0.1-0.6-0.3-0.5c-0.2,0.1-0.4,0.2-0.5,0.4c-2.5,2.3-5,4-7.4,5c-2.4,1.1-5.3,1.6-8.7,1.6
		c-3.6,0-6.9-0.6-9.8-1.9c-2.9-1.3-5.4-3.1-7.4-5.4c-2-2.3-3.6-5.2-4.7-8.6c-1.1-3.4-1.7-7.1-1.7-11.3c0-5.5,0.9-10.2,2.6-14.2
		c1.7-4,4-7.3,6.8-9.9c2.8-2.6,5.9-4.5,9.4-5.7c3.5-1.2,7-1.8,10.4-1.8c1.6,0,3.4,0.2,5.4,0.5c2,0.4,3.8,1,5.6,1.9v-7.5
		c0-3.5-0.1-6.3-0.2-8.4c-0.2-2.1-0.6-3.7-1.3-4.9c-0.7-1.1-1.8-1.9-3.2-2.3c-1.4-0.4-3.4-0.8-5.9-1c-0.7,0-1.1-0.6-1.1-1.9
		s0.4-1.9,1.1-1.9c1.9-0.1,3.9-0.3,6-0.6c2.1-0.3,4.1-0.7,6-0.9c1.9-0.3,3.6-0.5,5-0.8c1.5-0.2,2.5-0.4,3.1-0.4
		c0.6,0,1.1,0.2,1.5,0.5c0.3,0.3,0.6,0.7,0.6,1.1V228.7z M228.6,203.7c-1.6-2-3.2-3.4-5-4.4c-1.8-0.9-4-1.4-6.5-1.4
		c-2.5,0-4.7,0.4-6.7,1.1c-2,0.7-3.6,2-5,3.8c-1.4,1.8-2.4,4.3-3.1,7.4c-0.7,3.1-1,7-1,11.8c0,2.8,0.3,5.5,0.8,8.2
		c0.6,2.7,1.4,5,2.5,7.1c1.1,2.1,2.5,3.8,4.1,5c1.6,1.3,3.5,1.9,5.6,1.9c3.4,0,6.3-0.6,8.5-1.8c2.2-1.2,4.1-2.7,5.7-4.6V203.7z"/>
	<path d="M332.9,236.8c0,2.9,0.3,4.9,0.9,6c0.6,1.1,1.6,1.7,3,1.7c0.9,0,1.7-0.1,2.3-0.3c0.6-0.2,1.4-0.6,2.4-1.3
		c0.4-0.4,0.9-0.1,1.6,0.7c0.6,0.8,0.7,1.5,0.2,2c-1.4,1.7-3.1,3-5,4.1c-1.9,1-3.9,1.6-5.8,1.6c-2.5,0-4.6-0.5-6.3-1.5
		c-1.7-1-3.1-2.6-4.1-4.9c-0.2-0.4-0.4-0.4-0.8-0.1c-2.2,1.8-4.7,3.4-7.5,4.7c-2.7,1.2-6.2,1.8-10.3,1.8c-4.7,0-8.4-1.2-11-3.7
		c-2.6-2.5-3.9-6-3.9-10.6c0-6,2.7-10.7,8.2-13.9c5.5-3.2,13.5-4.8,24-4.8c0.1,0,0.2,0,0.3-0.1c0.1-0.1,0.1-0.3,0.1-0.8
		c0-0.4,0-1.1,0.1-1.9c0-0.9,0-2.1,0-3.6c0-2-0.2-4-0.5-5.8c-0.3-1.8-0.9-3.4-1.8-4.7c-0.9-1.4-2.1-2.4-3.6-3.2
		c-1.5-0.8-3.5-1.2-5.9-1.2s-4.5,0.6-6.3,1.8s-2.7,2.7-2.7,4.6c0,0.8,0.3,1.7,0.8,2.6c0.6,0.8,0.9,1.7,0.9,2.6
		c0,1.1-0.6,2.2-1.7,3.3c-1.2,1.1-2.5,1.6-4.1,1.6c-2.2,0-3.8-0.6-4.8-1.8c-0.9-1.2-1.4-2.7-1.4-4.4c0-2.1,0.6-4,1.7-5.8
		c1.2-1.8,2.7-3.4,4.7-4.7c2-1.3,4.3-2.4,6.9-3.2c2.6-0.8,5.4-1.1,8.3-1.1c6.6,0,11.7,1.5,15.5,4.6c3.8,3,5.6,8,5.6,15.1V236.8z
		 M321.3,224.3c0-0.9,0-1.5-0.1-1.7c-0.1-0.2-0.3-0.3-0.6-0.3c-6.7,0.6-11.7,2-15,4.3c-3.2,2.3-4.9,5.3-4.9,8.9
		c0,1.2,0.1,2.4,0.5,3.5c0.3,1.1,0.8,2,1.4,2.8c0.6,0.8,1.5,1.4,2.5,1.8c1,0.4,2.3,0.7,3.7,0.7c1.9,0,3.9-0.4,6-1.1
		c2-0.7,3.9-1.8,5.6-3.2c0.6-0.6,1-1.3,1-2V224.3z"/>
	<path d="M368.1,235.2c0,4.1,0.7,7,2,8.7c1.3,1.7,3.5,2.8,6.6,3.2c0.5,0.1,0.9,0.3,1.1,0.7c0.2,0.4,0.3,0.8,0.3,1.2
		s-0.1,0.9-0.4,1.2c-0.2,0.4-0.6,0.5-1,0.5c-0.4,0-1.1,0-2.1-0.1s-2.2-0.2-3.6-0.3c-1.4-0.1-2.8-0.2-4.2-0.4
		c-1.5-0.1-2.8-0.2-4.1-0.2c-2.7,0-5.2,0.1-7.5,0.4c-2.4,0.3-4.6,0.4-6.8,0.4c-0.4,0-0.7-0.2-0.9-0.5c-0.2-0.4-0.3-0.8-0.3-1.2
		c0-0.4,0.1-0.8,0.3-1.2c0.2-0.4,0.5-0.6,1-0.7c2-0.3,3.6-0.7,4.7-1.1c1.1-0.4,1.9-1,2.4-1.8c0.5-0.8,0.8-1.8,0.9-3.1
		c0.1-1.3,0.1-3,0.1-5.1v-15.5c0-4.1,0-7.5-0.1-10.1c0-2.7-0.3-4.8-0.9-6.3c-0.5-1.6-1.4-2.7-2.5-3.3s-2.8-1-5.1-1.1
		c-0.5,0-0.8-0.2-1-0.6c-0.2-0.4-0.3-0.8-0.3-1.2s0.1-0.8,0.2-1.2c0.2-0.4,0.4-0.6,0.7-0.6c4.7-0.3,8.6-0.8,11.9-1.5
		c3.2-0.7,5.3-1,6.2-1c0.9,0,1.6,0.2,1.9,0.7c0.4,0.5,0.5,1.1,0.5,1.9c0,0.2-0.1,0.6-0.2,1.2s-0.3,1.4-0.4,2.3
		c-0.2,0.9-0.3,1.7-0.4,2.5c-0.1,0.8-0.2,1.4-0.2,1.8c0,0.2,0.1,0.2,0.2,0.2c0.1,0,0.2-0.1,0.3-0.2c0.6-1,1.4-2.1,2.6-3.4
		c1.2-1.3,2.5-2.5,4.2-3.6c1.6-1.2,3.5-2.1,5.6-2.9c2.1-0.8,4.4-1.2,6.9-1.2c5.8,0,10.4,1.7,13.7,5.1c3.3,3.4,4.9,8.9,4.9,16.5v21
		c0,2.2,0.1,4,0.2,5.4c0.2,1.4,0.5,2.5,1,3.4c0.5,0.9,1.3,1.5,2.3,2c1,0.5,2.4,0.8,4.1,1.1c0.4,0.1,0.7,0.3,0.9,0.7
		c0.2,0.4,0.3,0.8,0.3,1.2c0,0.5-0.1,0.9-0.3,1.2c-0.2,0.4-0.5,0.5-0.9,0.5c-1.1,0-2.9-0.1-5.5-0.4c-2.6-0.3-5.1-0.4-7.5-0.4
		c-2.6,0-5.1,0.1-7.2,0.4c-2.2,0.3-4,0.4-5.6,0.4c-0.4,0-0.8-0.2-1-0.5c-0.2-0.4-0.3-0.8-0.4-1.2c0-0.4,0-0.8,0.2-1.2
		c0.2-0.4,0.5-0.6,1-0.7c1.6-0.3,2.9-0.7,3.8-1.2c0.9-0.5,1.6-1.2,2-2c0.5-0.8,0.7-1.9,0.8-3.1c0.1-1.3,0.1-2.9,0.1-4.8v-18.7
		c0-2-0.1-4.1-0.2-6.1c-0.1-2-0.5-3.9-1.2-5.5c-0.7-1.6-1.7-3-3.1-4.1c-1.3-1.1-3.2-1.6-5.7-1.6c-4.9,0-8.7,1.6-11.4,4.7
		c-2.7,3.2-4,7.7-4,13.6V235.2z"/>
	<path d="M471.8,228.7c0,3.4,0.1,6.1,0.2,8.2c0.1,2.1,0.5,3.7,1.1,4.9c0.6,1.2,1.5,2,2.8,2.5c1.2,0.5,2.9,0.7,5.1,0.7
		c0.8,0,1.1,0.6,1.1,1.8c0,1.2-0.4,1.8-1.1,1.8c-2.2,0-5.7,0.5-10.4,1.4c-4.7,0.9-7.4,1.4-8,1.4c-0.6,0-1.2-0.6-1.6-1.7
		c-0.4-1.1-0.6-2.7-0.6-4.8c0-0.4-0.1-0.6-0.3-0.5c-0.2,0.1-0.4,0.2-0.5,0.4c-2.5,2.3-5,4-7.4,5c-2.4,1.1-5.3,1.6-8.7,1.6
		c-3.6,0-6.9-0.6-9.8-1.9c-2.9-1.3-5.4-3.1-7.4-5.4c-2-2.3-3.6-5.2-4.7-8.6c-1.1-3.4-1.7-7.1-1.7-11.3c0-5.5,0.9-10.2,2.6-14.2
		c1.7-4,4-7.3,6.8-9.9c2.8-2.6,5.9-4.5,9.4-5.7c3.5-1.2,7-1.8,10.4-1.8c1.6,0,3.4,0.2,5.4,0.5c2,0.4,3.8,1,5.6,1.9v-7.5
		c0-3.5-0.1-6.3-0.2-8.4s-0.6-3.7-1.3-4.9c-0.7-1.1-1.8-1.9-3.2-2.3c-1.4-0.4-3.4-0.8-5.9-1c-0.7,0-1.1-0.6-1.1-1.9s0.4-1.9,1.1-1.9
		c1.9-0.1,3.9-0.3,6-0.6c2.1-0.3,4.1-0.7,6-0.9c1.9-0.3,3.6-0.5,5-0.8c1.5-0.2,2.5-0.4,3.1-0.4c0.6,0,1.1,0.2,1.5,0.5
		c0.3,0.3,0.6,0.7,0.6,1.1V228.7z M460.2,203.7c-1.6-2-3.2-3.4-5-4.4c-1.8-0.9-4-1.4-6.5-1.4c-2.5,0-4.7,0.4-6.7,1.1
		c-2,0.7-3.6,2-5,3.8c-1.4,1.8-2.4,4.3-3.1,7.4c-0.7,3.1-1,7-1,11.8c0,2.8,0.3,5.5,0.8,8.2c0.6,2.7,1.4,5,2.5,7.1
		c1.1,2.1,2.5,3.8,4.1,5c1.6,1.3,3.5,1.9,5.6,1.9c3.4,0,6.3-0.6,8.5-1.8s4.1-2.7,5.7-4.6V203.7z"/>
	<path d="M564.7,164.9c3.7,0,7.1,0.5,10.2,1.4c3.1,0.9,6.2,2.1,9.3,3.6c0.9,0.4,1.7,0.8,2.5,1.1c0.8,0.4,1.5,0.5,2,0.5
		c1.3,0,2.2-0.8,2.6-2.3c0.1-0.3,0.3-0.6,0.8-0.7c0.5-0.2,0.9-0.2,1.4-0.2c0.5,0,0.9,0.1,1.2,0.3c0.3,0.2,0.4,0.4,0.4,0.8
		c-0.3,1.3-0.5,2.6-0.7,4c-0.1,1.4-0.2,2.8-0.2,4.3c0,2.3,0.2,4.6,0.5,6.9c0.3,2.3,0.6,4.7,1,7.1c0,0.3-0.2,0.6-0.5,0.8
		c-0.4,0.2-0.8,0.4-1.4,0.4c-0.5,0-1.1,0-1.6-0.2c-0.5-0.2-0.8-0.5-0.9-0.9c-2-7.4-5.4-12.8-9.9-16.3s-10.4-5.2-17.3-5.2
		c-5.4,0-9.9,1.2-13.4,3.5c-3.5,2.3-6.4,5.2-8.4,8.8c-2.1,3.6-3.5,7.5-4.4,11.9c-0.8,4.4-1.2,8.7-1.2,12.8c0,4.6,0.5,9.2,1.5,13.8
		c1,4.6,2.6,8.7,4.8,12.4c2.2,3.7,5.1,6.7,8.7,9c3.6,2.3,7.9,3.5,13,3.5c3.9,0,7.5-0.3,10.6-1c3.1-0.7,5.7-2,7.9-3.8
		c2.6-2.4,4.7-5.3,6.3-8.6s2.7-7.1,3.3-11.2c0.1-0.6,0.3-1,0.8-1.1c0.4-0.2,0.9-0.2,1.4-0.1c0.5,0.1,1,0.4,1.4,0.7
		c0.4,0.3,0.6,0.7,0.5,1c-0.2,1.6-0.4,3.3-0.5,4.9c-0.1,1.6-0.1,3.2-0.1,4.9c0,2.8,0.1,5.6,0.3,8.5c0.2,2.9,0.4,6,0.6,9.2
		c0,0.5-0.2,0.8-0.5,1.1c-0.3,0.2-0.7,0.4-1.2,0.4c-0.4,0-0.9,0-1.3-0.2c-0.4-0.2-0.7-0.5-0.8-0.9c-0.2-0.8-0.4-1.5-0.8-2.2
		c-0.4-0.7-0.9-1.3-1.6-1.7c-0.7-0.5-1.4-0.7-2.3-0.7c-0.9,0-1.8,0.3-2.9,0.8c-1.8,1-3.5,1.9-5.2,2.6c-1.7,0.7-3.4,1.3-5.1,1.7
		c-1.7,0.4-3.5,0.7-5.4,0.8c-1.9,0.2-3.9,0.2-6.1,0.2c-14.5,0-25.3-3.6-32.3-10.9c-7-7.3-10.5-17.7-10.5-31.2
		c0-7.2,1.1-13.6,3.3-19.1s5.3-10.2,9.2-13.9s8.5-6.5,13.9-8.4C552.5,165.8,558.4,164.9,564.7,164.9z"/>
	<path d="M661.7,220.2c0,5-0.7,9.4-2.1,13.3c-1.4,3.9-3.4,7.1-6,9.7c-2.6,2.6-5.7,4.6-9.3,6s-7.6,2-12.1,2c-3.8,0-7.4-0.6-10.7-1.9
		c-3.3-1.3-6.1-3.1-8.5-5.6c-2.4-2.5-4.3-5.7-5.7-9.5c-1.4-3.8-2.1-8.3-2.1-13.5c0-4.2,0.7-8.1,2.1-11.5c1.4-3.5,3.3-6.5,5.8-8.9
		c2.5-2.5,5.5-4.4,9.1-5.8c3.5-1.4,7.4-2.1,11.6-2.1c4,0,7.7,0.6,11.1,1.8c3.4,1.2,6.3,3,8.8,5.3c2.5,2.3,4.4,5.2,5.8,8.7
		C661,211.8,661.7,215.8,661.7,220.2z M648.8,221.6c0-3.1-0.2-6.2-0.6-9.1s-1.2-5.6-2.2-7.9c-1.1-2.3-2.5-4.2-4.4-5.6
		c-1.9-1.4-4.3-2.1-7.3-2.1c-3.3,0-6,0.7-8,2.1c-2,1.4-3.7,3.3-4.9,5.6c-1.2,2.3-2,5-2.5,7.9c-0.4,2.9-0.7,6-0.7,9.2
		c0,2.8,0.2,5.7,0.6,8.6s1.2,5.6,2.3,8c1.2,2.4,2.7,4.4,4.7,5.9c2,1.6,4.6,2.3,7.7,2.3c3.2,0,5.8-0.7,7.8-2.2c2-1.5,3.5-3.4,4.6-5.8
		c1.1-2.4,1.8-5.1,2.2-8.1C648.6,227.7,648.8,224.7,648.8,221.6z"/>
	<path d="M727.3,220.2c0,5-0.7,9.4-2.1,13.3c-1.4,3.9-3.4,7.1-6,9.7c-2.6,2.6-5.7,4.6-9.3,6s-7.6,2-12.1,2c-3.8,0-7.4-0.6-10.7-1.9
		c-3.3-1.3-6.1-3.1-8.5-5.6c-2.4-2.5-4.3-5.7-5.7-9.5c-1.4-3.8-2.1-8.3-2.1-13.5c0-4.2,0.7-8.1,2.1-11.5c1.4-3.5,3.3-6.5,5.8-8.9
		c2.5-2.5,5.5-4.4,9.1-5.8c3.5-1.4,7.4-2.1,11.6-2.1c4,0,7.7,0.6,11.1,1.8c3.4,1.2,6.3,3,8.8,5.3c2.5,2.3,4.4,5.2,5.8,8.7
		C726.6,211.8,727.3,215.8,727.3,220.2z M714.4,221.6c0-3.1-0.2-6.2-0.6-9.1s-1.2-5.6-2.2-7.9c-1.1-2.3-2.5-4.2-4.4-5.6
		c-1.9-1.4-4.3-2.1-7.3-2.1c-3.3,0-6,0.7-8,2.1c-2,1.4-3.7,3.3-4.9,5.6c-1.2,2.3-2,5-2.5,7.9c-0.4,2.9-0.7,6-0.7,9.2
		c0,2.8,0.2,5.7,0.6,8.6s1.2,5.6,2.3,8c1.2,2.4,2.7,4.4,4.7,5.9c2,1.6,4.6,2.3,7.7,2.3c3.2,0,5.8-0.7,7.8-2.2c2-1.5,3.5-3.4,4.6-5.8
		c1.1-2.4,1.8-5.1,2.2-8.1C714.2,227.7,714.4,224.7,714.4,221.6z"/>
	<path d="M798.6,250.7c-1.3-0.1-2.7-0.2-4-0.2c-1.3-0.1-2.8-0.1-4.2-0.1c-1.6,0-3.3,0.1-4.9,0.2c-1.6,0.1-3.1,0.2-4.5,0.2
		c-0.6,0-1-0.2-1.2-0.6c-0.3-0.4-0.4-0.8-0.5-1.1c-0.6-3.4-1.7-6.7-3.2-9.7c-1.5-3-3.3-5.7-5.2-8c-2-2.3-4.1-4.1-6.3-5.4
		c-2.3-1.3-4.5-2-6.7-2v9.6c0,2.4,0.1,4.3,0.2,5.9c0.1,1.6,0.4,2.9,0.9,3.9c0.5,1,1.2,1.8,2.2,2.3c1,0.5,2.3,1,4.1,1.3
		c0.4,0.1,0.7,0.3,0.9,0.7c0.2,0.4,0.3,0.8,0.3,1.2c0,0.5-0.1,0.9-0.3,1.2c-0.2,0.4-0.5,0.5-0.9,0.5c-2.3,0-4.4-0.1-6.3-0.4
		c-1.9-0.3-4.1-0.4-6.5-0.4c-2.7,0-5.3,0.1-7.8,0.4c-2.5,0.3-5.1,0.4-7.7,0.4c-0.4,0-0.7-0.2-0.9-0.5c-0.2-0.4-0.3-0.8-0.3-1.2
		c0-0.5,0.1-0.9,0.3-1.2c0.2-0.4,0.6-0.6,1.1-0.7c2.3-0.2,4.1-0.6,5.3-1.1c1.3-0.5,2.2-1.2,2.8-2c0.6-0.9,0.9-1.9,1-3.2
		c0.1-1.3,0.2-2.9,0.2-4.8v-48.3c0-3.5-0.1-6.3-0.3-8.4c-0.2-2.1-0.6-3.7-1.4-4.9c-0.7-1.1-1.8-1.9-3.3-2.3c-1.5-0.4-3.5-0.8-6.2-1
		c-0.4,0-0.7-0.2-0.9-0.6c-0.2-0.4-0.3-0.9-0.3-1.4c0-0.5,0.1-1,0.3-1.4c0.2-0.4,0.5-0.6,1-0.6c5.2-0.5,9.6-1.1,13.2-1.7
		c3.6-0.6,6.1-1,7.5-1c0.7,0,1.2,0.2,1.4,0.5c0.3,0.4,0.4,0.7,0.4,1.1v52.7c1.6-1,3-2.1,4.4-3.3c1.4-1.2,2.7-2.5,3.8-3.8
		c1.1-1.3,2.2-2.6,3.2-3.8c1-1.2,1.9-2.3,2.6-3.2c1.6-2.1,2.3-3.7,2.1-4.6c-0.2-0.9-1.6-1.5-4.2-1.7c-0.4,0-0.8-0.2-1-0.6
		c-0.2-0.4-0.4-0.9-0.4-1.3c0-0.4,0.1-0.9,0.4-1.2c0.2-0.4,0.6-0.6,1-0.6c1.3,0,2.4,0,3.4,0.1c1,0.1,1.8,0.2,2.6,0.3
		c0.8,0.1,1.5,0.3,2.3,0.3c0.7,0.1,1.6,0.1,2.6,0.1c1.9,0,3.8-0.2,5.8-0.5c2-0.3,3.9-0.5,5.8-0.5c0.4,0,0.7,0.2,0.9,0.6
		s0.4,0.8,0.4,1.2c0,0.4-0.1,0.9-0.3,1.2c-0.2,0.4-0.5,0.6-1,0.7c-1.6,0.2-3,0.4-4.1,0.7s-2,0.8-2.9,1.4c-0.9,0.6-1.8,1.3-2.6,2
		c-0.8,0.8-1.8,1.7-2.9,2.7c-0.8,0.7-1.8,1.6-3,2.7c-1.2,1.1-2.6,2.4-4,3.6s-2.8,2.5-4.2,3.6c-1.4,1.1-2.5,2.1-3.5,2.8
		c-0.3,0.3-0.4,0.5-0.4,0.8c0.1,0.2,0.2,0.4,0.5,0.4c3.3,0.2,6,0.7,8.2,1.7c2.2,0.9,4,2.1,5.5,3.6c1.5,1.4,2.7,3.1,3.8,4.9
		c1,1.8,2,3.7,3.1,5.6c1,1.9,2.2,3.8,3.5,5.7s2.9,3.5,4.9,5.1c0.6,0.4,1.3,0.7,2.1,0.9c0.9,0.2,1.8,0.4,2.7,0.6
		c0.5,0.1,0.9,0.3,1.1,0.7s0.4,0.8,0.4,1.2c0,0.5-0.1,0.9-0.4,1.2C799.4,250.5,799,250.7,798.6,250.7z"/>
	<path d="M816.2,228.3c0,0.4-0.2,0.7-0.7,0.8c-0.5,0.2-0.9,0.2-1.4,0.2s-1-0.1-1.4-0.2c-0.4-0.2-0.7-0.4-0.7-0.8
		c0-5.8-0.1-10.6-0.2-14.5s-0.3-7.3-0.5-10.2c-0.2-2.8-0.5-5.3-0.8-7.5c-0.3-2.2-0.7-4.4-1-6.7c-0.4-2.1-0.9-4.5-1.5-7.1
		c-0.6-2.6-0.9-4.9-0.9-6.9c0-2.2,0.5-4.1,1.7-5.6c1.1-1.6,2.9-2.3,5.5-2.3c2.8,0,4.7,0.8,5.8,2.3c1.1,1.5,1.7,3.4,1.7,5.7
		c0,0.9-0.1,2-0.3,3.2c-0.2,1.3-0.5,2.6-0.8,3.8c-0.3,1.3-0.6,2.5-0.9,3.8c-0.3,1.3-0.5,2.4-0.7,3.2c-0.4,2.3-0.8,4.6-1.2,6.7
		c-0.4,2.2-0.7,4.7-1,7.5c-0.3,2.8-0.5,6.2-0.7,10.1C816.3,217.7,816.2,222.5,816.2,228.3z M807.8,244.9c0-1.8,0.6-3.3,1.8-4.5
		c1.2-1.2,2.7-1.8,4.5-1.8s3.3,0.6,4.5,1.8c1.2,1.2,1.8,2.7,1.8,4.5c0,1.8-0.6,3.3-1.8,4.5s-2.7,1.8-4.5,1.8s-3.3-0.6-4.5-1.8
		S807.8,246.7,807.8,244.9z"/>
</g>
<g>
	<path class="st0" d="M594.1,110.1c1.1,0,2.1,0,3.1,0c4.6-0.2,9-1.3,13-3.6c12.6-7.2,13.4-25.9,1.3-34c-6-4-12.7-4.9-19.6-4
		c-1.7,0.2-2.6-0.1-3.1-2c-3.9-13.2-18.3-18.7-30.1-11.6c-1.4,0.9-2.2,0.8-3.6-0.3c-12.7-10.5-31.7-3.4-34.3,12.8
		c-0.4,2.3-1.3,2.7-3.2,3c-6.3,1-11.3,4.1-14.4,9.8c-7.2,13,0.3,28.9,15,31.6c2.1,0.4,2.5,1.1,2.4,3c-0.1,3.9,0.3,7.8-0.1,11.6
		c-0.5,4.4,1.7,6.6,5.3,8c0.8,0.3,1.7,0.7,2.5,1c7.7,2.8,15.7,3.8,23.8,4.2c13.4,0.6,26.5-1.1,38.9-6.5c1.7-0.7,2.8-1.7,2.9-3.6
		c0.1-4.8,0.2-9.5,0.3-14.3C594.1,113.6,594.1,112,594.1,110.1z"/>
	<path d="M594.1,110.1c0,1.9,0,3.5,0,5.2c-0.1,4.8-0.2,9.5-0.3,14.3c0,1.9-1.2,2.8-2.9,3.6c-12.4,5.4-25.5,7-38.9,6.5
		c-8.1-0.4-16.1-1.4-23.8-4.2c-0.9-0.3-1.7-0.7-2.5-1c-3.6-1.4-5.8-3.6-5.3-8c0.4-3.8,0-7.7,0.1-11.6c0.1-1.9-0.4-2.6-2.4-3
		c-14.7-2.7-22.2-18.6-15-31.6c3.1-5.6,8.1-8.8,14.4-9.8c1.9-0.3,2.9-0.8,3.2-3c2.6-16.2,21.6-23.2,34.3-12.8
		c1.3,1.1,2.1,1.1,3.6,0.3c11.8-7.1,26.3-1.6,30.1,11.6c0.6,1.9,1.4,2.2,3.1,2c7-0.9,13.7,0,19.6,4c12,8.1,11.2,26.8-1.3,34
		c-4,2.3-8.4,3.4-13,3.6C596.2,110.1,595.2,110.1,594.1,110.1z M589.1,94.4c0.3,0.1,0.6,0.1,0.9,0.2c1.1,2.6,2.4,5.2,3.3,7.8
		c0.5,1.7,1.3,2.1,2.9,2.1c5-0.2,9.5-1.7,13.5-4.7c5.8-4.3,7.2-11.6,3.4-17.8c-3.9-6.4-13.2-10.2-21.2-8.8c-2.6,0.5-4.4,1.4-5.4,4.2
		c-1.1,3-3.5,5.2-6.5,6.7c1.3-3.1,2.9-5.8,3.7-8.8c2.7-10.1-7.1-20.1-17.2-17.7c-2.7,0.7-5.3,2.2-7.9,3.4c-1.8,0.9-3.4,1.5-5.1-0.4
		c-5.4-6.2-13.1-7.7-20.6-4.2c-10.9,5.2-12.5,18.9-3,26.1c1.3,1,2.8,1.7,4.5,2.7c-5.7,0.7-9.2-1.1-11.6-5.7c-0.5-1-0.9-2.2-1.6-3.1
		c-0.5-0.6-1.5-1.1-2.2-1.1c-6,0.4-12.3,6.4-13.4,12.8c-1.2,7.1,2.4,14.1,8.7,16.6c6.8,2.7,13.3,1.4,19.1-2.4
		c3.3-2.2,5.9-5.4,8.6-7.9c0-0.4,0.1-0.2,0,0c-2.1,8.1-6.5,14.1-14.8,16.8c-0.7,0.2-1.7,0.9-1.7,1.3c-0.1,4.1-0.1,8.2-0.1,12
		c3.5,0,7-0.6,10,0.1c4.7,1.2,9.2,3.5,13.8,5.1c4.7,1.7,9.4,3.8,14.2,4.7c9.3,1.6,17-2.4,24-8.2c0.7-0.6,1.1-2,1.1-3
		c0.1-6.3,0-12.5,0.1-18.8c0-1.8-0.6-2.8-2.2-3.6c-8.2-4.3-17-5.5-26.1-5.5c-0.7,0-1.3,0-2,0c-0.6,0-1.1-0.1-1.7-0.2
		c10-2.2,19.9-2.9,29.7,0.4C587.7,96,588.9,96.8,589.1,94.4z"/>
	<path class="st0" d="M589.1,94.4c-0.2,2.4-1.4,1.6-2.5,1.2c-9.8-3.4-19.7-2.6-29.7-0.4c0.6,0.1,1.1,0.2,1.7,0.2c0.7,0,1.3,0,2,0
		c9.1,0,17.9,1.2,26.1,5.5c1.6,0.8,2.2,1.8,2.2,3.6c-0.1,6.3,0,12.5-0.1,18.8c0,1-0.4,2.4-1.1,3c-6.9,5.8-14.7,9.8-24,8.2
		c-4.9-0.8-9.5-3-14.2-4.7c-4.6-1.7-9.1-3.9-13.8-5.1c-3-0.8-6.4-0.1-10-0.1c0-3.8-0.1-7.9,0.1-12c0-0.5,1-1.1,1.7-1.3
		c8.3-2.7,12.7-8.7,14.8-16.8c0.1-0.2,0-0.5,0,0c-2.7,2.5-5.3,5.7-8.6,7.9c-5.8,3.8-12.3,5.1-19.1,2.4c-6.3-2.5-9.9-9.5-8.7-16.6
		c1.1-6.4,7.4-12.4,13.4-12.8c0.7,0,1.7,0.5,2.2,1.1c0.7,0.9,1,2,1.6,3.1c2.4,4.6,5.9,6.4,11.6,5.7c-1.7-1-3.2-1.7-4.5-2.7
		c-9.4-7.3-7.8-21,3-26.1c7.5-3.5,15.2-2,20.6,4.2c1.7,1.9,3.2,1.3,5.1,0.4c2.6-1.2,5.1-2.7,7.9-3.4c10.1-2.4,19.8,7.6,17.2,17.7
		c-0.8,3-2.4,5.7-3.7,8.8c3-1.5,5.4-3.6,6.5-6.7c1-2.8,2.8-3.7,5.4-4.2c8-1.4,17.3,2.4,21.2,8.8c3.7,6.2,2.3,13.5-3.4,17.8
		c-4,3-8.5,4.5-13.5,4.7c-1.7,0.1-2.4-0.4-2.9-2.1c-0.9-2.7-2.2-5.2-3.3-7.8C589.7,94.5,589.4,94.4,589.1,94.4z"/>
</g>
</svg>
